<?xml version="1.0" encoding="UTF-8" standalone="no"?>
<!DOCTYPE svg PUBLIC "-//W3C//DTD SVG 1.1//EN" "http://www.w3.org/Graphics/SVG/1.1/DTD/svg11.dtd">
<!-- Created with Vectornator (http://vectornator.io/) -->
<svg height="100%" stroke-miterlimit="10" style="fill-rule:nonzero;clip-rule:evenodd;stroke-linecap:round;stroke-linejoin:round;" version="1.1" viewBox="0 0 1024 1024" width="100%" xml:space="preserve" xmlns="http://www.w3.org/2000/svg" xmlns:xlink="http://www.w3.org/1999/xlink">
<defs/>
<g id="图层-1">
<path d="M329.629 85.3424C321.66 86.6298 312.097 90.7982 305.354 95.9475C284.941 111.457 269.125 144.375 262.443 185.386C259.93 200.895 258.214 222.412 258.214 238.841C258.214 258.212 260.482 282.977 263.731 300.08C264.466 303.881 264.834 307.253 264.528 307.498C264.283 307.743 261.279 310.195 257.907 312.892C246.383 322.087 233.203 336.248 224.13 349.183C206.721 373.887 195.441 401.963 190.721 432.368C188.882 444.383 188.392 468.658 189.863 480.673C193.112 508.381 201.449 531.798 215.732 553.254L220.391 560.181L219.042 562.449C209.479 578.51 201.326 601.743 197.526 624.056C194.522 641.711 194.154 646.431 194.154 670.093C194.154 693.94 194.461 698.66 197.28 715.15C200.652 734.889 207.518 755.792 215.18 769.708C217.694 774.244 223.824 783.684 224.559 784.175C224.805 784.297 224.069 786.565 222.904 789.201C214.077 808.511 206.537 834.196 203.411 855.836C201.204 870.67 200.897 875.452 200.897 891.084C200.897 911.006 202.001 920.692 206.169 936.569L206.782 938.898L233.019 938.898L259.317 938.898L257.601 935.649C246.996 916.033 246.015 879.62 255.149 843.269C259.317 826.472 264.037 814.151 272.865 797.17L278.137 786.872L278.137 780.558C278.137 774.673 278.014 773.999 276.114 770.137C274.642 767.194 272.681 764.681 269.187 761.248C263.24 755.486 258.949 749.417 255.516 741.938C240.436 709.203 237.494 660.592 248.099 619.152C252.513 601.865 259.808 586.479 267.47 578.081C272.681 572.318 275.378 565.882 275.378 559.2C275.378 552.273 272.926 546.572 267.409 540.626C251.593 523.707 241.846 503.109 238.352 479.141C233.387 444.996 242.398 407.786 262.873 378.301C282.918 349.366 311.055 330.792 342.503 325.827C349.552 324.662 362.732 324.846 370.088 326.195C378.119 327.605 383.145 327.175 388.295 324.723C394.67 321.72 397.858 317.98 401.597 309.398C404.907 301.736 407.482 297.567 414.409 288.924C422.746 278.564 430.776 271.514 443.649 262.993C458.362 253.369 475.097 246.381 491.771 243.009C497.839 241.783 500.659 241.599 512 241.599C523.341 241.599 526.161 241.783 532.229 243.009C556.688 247.975 580.964 260.603 600.335 278.502C604.503 282.364 614.495 294.747 617.683 299.897C618.909 301.919 621.055 306.211 622.403 309.398C626.142 317.98 629.33 321.72 635.705 324.723C640.671 327.114 645.881 327.605 653.605 326.317C665.804 324.233 675.183 324.417 687.137 326.869C727.841 335.083 763.273 368.615 778.966 413.549C792.636 452.965 788.774 494.221 768.422 525.729C764.989 531.063 761.556 535.354 756.591 540.626C745.863 552.089 745.863 566.311 756.53 578.081C774.062 597.268 785.035 644.47 781.724 686.093C779.518 713.556 772.468 738.138 762.782 752.053C761.066 754.505 757.511 758.673 754.813 761.248C751.319 764.681 749.358 767.194 747.886 770.137C745.986 773.999 745.863 774.673 745.863 780.558L745.863 786.872L751.135 797.17C759.963 814.151 764.683 826.472 768.851 843.269C777.863 879.13 777.066 914.807 766.767 935.098C765.909 936.814 765.173 938.408 765.173 938.592C765.173 938.776 776.882 938.898 791.226 938.898L817.218 938.898L817.892 936.262C818.26 934.853 818.873 932.707 819.179 931.481C819.854 928.784 821.202 920.815 822.306 913.152C823.348 905.428 823.348 876.984 822.306 868.402C818.383 837.261 811.823 812.557 801.096 789.201C799.931 786.565 799.195 784.297 799.44 784.175C799.747 783.991 801.463 781.539 803.302 778.78C816.666 758.551 824.88 733.111 829.049 699.518C830.152 690.261 830.152 650.477 829.049 641.588C826.106 618.662 822.551 603.091 816.666 587.337C814.214 580.778 807.716 566.924 804.958 562.449L803.609 560.181L808.268 553.254C822.551 531.798 830.888 508.381 834.137 480.673C835.608 468.658 835.118 444.383 833.279 432.368C828.497 401.901 817.279 373.948 799.87 349.183C790.797 336.248 777.617 322.087 766.093 312.892C762.721 310.195 759.717 307.743 759.472 307.498C759.166 307.253 759.534 303.881 760.269 300.08C767.687 261.399 767.441 213.156 759.656 175.455C752.913 142.598 740.653 116.483 724.837 101.403C712.209 89.3883 699.336 84.239 683.888 85.2198C648.456 87.304 619.89 128.069 608.61 192.313C606.771 202.673 605.178 214.811 605.178 218.121C605.178 219.408 604.932 220.45 604.626 220.45C604.319 220.45 601.929 219.224 599.354 217.692C572.014 201.508 541.608 192.865 512 192.865C482.392 192.865 451.986 201.508 424.646 217.692C422.071 219.224 419.681 220.45 419.374 220.45C419.068 220.45 418.822 219.408 418.822 218.121C418.822 214.688 417.167 202.183 415.39 192.313C405.152 134.628 381.674 96.4379 350.472 86.8136C346.181 85.5263 333.982 84.6681 329.629 85.3424ZM340.051 135.242C348.878 142.23 358.686 162.214 364.326 184.589C365.368 188.635 366.471 193.294 366.778 195.01C367.023 196.666 367.697 200.405 368.249 203.286C370.64 216.282 371.743 230.32 371.866 247.423L371.927 264.281L367.697 270.533L363.468 276.847L353.598 276.847C342.074 276.847 330.61 278.319 319.637 281.261C315.714 282.242 311.913 283.223 311.178 283.407C310.013 283.652 309.829 283.284 309.155 278.257C305.538 250.978 305.722 220.757 309.707 195.623C314.12 167.608 324.419 142.23 334.472 134.751C336.863 132.973 337.292 133.035 340.051 135.242ZM689.589 134.812C695.658 139.287 702.34 151.18 707.305 166.382C717.297 196.788 720.117 238.534 714.845 278.257C714.171 283.284 713.987 283.652 712.822 283.407C712.087 283.223 708.286 282.242 704.363 281.261C693.39 278.319 681.926 276.847 670.402 276.847L660.532 276.847L656.303 270.533L652.073 264.281L652.134 247.423C652.257 223.638 654.464 205.064 659.735 184.405C665.314 162.214 675.183 142.23 683.949 135.242C686.708 133.035 687.137 132.973 689.589 134.812Z" fill="#000000" fill-rule="nonzero" opacity="1" stroke="none"/>
<path d="M502.498 443.34C489.195 444.628 485.579 445.118 479.203 446.406C468.843 448.551 454.989 453.333 445.365 458.053C411.895 474.42 388.846 501.699 381.796 533.269C380.386 539.522 380.202 541.606 380.202 552.15C380.202 562.571 380.386 564.839 381.735 570.785C391.114 612.041 429.12 642.508 478.284 648.086C488.95 649.251 535.049 649.251 545.715 648.086C585.193 643.611 619.154 622.217 634.418 592.179C638.463 584.149 640.425 578.938 642.264 570.785C643.613 564.839 643.797 562.571 643.797 552.15C643.797 541.606 643.613 539.522 642.203 533.269C631.965 487.416 587.461 451.31 532.903 444.444C525.792 443.586 507.157 442.85 502.498 443.34ZM525.424 476.688C543.631 478.65 561.96 485.148 576.672 494.956C584.58 500.228 595.737 511.262 600.518 518.496C606.403 527.445 609.774 536.579 611.307 547.675C611.981 552.763 611.614 556.625 609.774 564.839C606.893 577.099 597.943 589.911 585.867 598.861C580.227 602.968 568.519 608.915 561.347 611.244C547.738 615.596 538.849 616.393 507.095 616.148C486.376 615.964 482.697 615.78 476.751 614.677C456.461 610.876 440.4 602.784 428.753 590.463C419.312 580.532 415.021 571.46 412.692 556.809C411.65 550.004 413.611 538.725 417.596 529.223C422.439 517.637 434.944 503.232 447.327 494.956C461.671 485.393 480.552 478.589 497.9 476.75C504.582 476.014 518.742 476.014 525.424 476.688Z" fill="#000000" fill-rule="nonzero" opacity="1" stroke="none"/>
<path d="M488.584 521.439C483.925 523.952 480.676 530.327 481.657 535.047C482.76 540.135 487.235 545.285 494.223 549.515C497.963 551.783 498.208 552.089 498.392 554.357C498.514 555.706 498.024 559.568 497.35 563.001C496.614 566.372 496.062 569.928 496.062 570.909C496.124 573.545 498.576 577.836 501.15 579.92C503.419 581.759 503.848 581.82 510.223 582.004C516.047 582.188 517.273 582.065 519.602 580.962C525.61 578.019 527.142 572.625 524.935 562.265C523.096 553.622 523.464 552.273 528.062 549.637C532.904 546.817 538.054 541.852 539.586 538.48C542.529 532.044 539.831 524.749 533.333 521.377C531.74 520.58 529.778 520.213 526.897 520.213C522.422 520.213 519.541 521.255 514.269 524.626L511.265 526.527L509.365 525.362C501.58 520.764 500.17 520.213 495.449 520.274C492.078 520.274 490.239 520.58 488.584 521.439Z" fill="#000000" fill-rule="nonzero" opacity="1" stroke="none"/>
<path d="M339.744 450.268C328.894 453.701 320.802 461.67 316.634 473.011C314.611 478.406 313.63 486.927 314.488 491.524C316.511 502.497 325.522 512.489 335.76 515.248C348.633 518.619 358.257 516.412 366.778 507.953C371.743 503.11 374.441 498.88 377.138 492.014C379.099 487.172 379.222 486.314 379.222 479.448L379.283 472.092L376.709 466.82C372.601 458.483 365.184 452.291 356.602 450.023C351.759 448.797 343.974 448.859 339.744 450.268Z" fill="#000000" fill-rule="nonzero" opacity="1" stroke="none"/>
<path d="M667.153 450.085C658.755 452.353 651.276 458.605 647.291 466.82L644.717 472.092L644.778 479.448C644.778 486.314 644.901 487.172 646.862 492.014C649.56 498.88 652.257 503.11 657.222 507.953C665.743 516.412 675.367 518.619 688.241 515.248C695.658 513.286 703.075 507.033 706.631 499.738C709.696 493.547 710.431 489.072 709.451 482.022C707.183 465.9 697.742 454.192 683.704 450.085C679.597 448.859 671.628 448.859 667.153 450.085Z" fill="#000000" fill-rule="nonzero" opacity="1" stroke="none"/>
</g>
</svg>
