<?xml version="1.0" encoding="UTF-8" standalone="no"?>
<!DOCTYPE svg PUBLIC "-//W3C//DTD SVG 1.1//EN" "http://www.w3.org/Graphics/SVG/1.1/DTD/svg11.dtd">
<!-- Created with Vectornator (http://vectornator.io/) -->
<svg height="512.0pt" stroke-miterlimit="10" style="fill-rule:nonzero;clip-rule:evenodd;stroke-linecap:round;stroke-linejoin:round;" version="1.1" viewBox="0 0 512 512" width="512.0pt" xml:space="preserve" xmlns="http://www.w3.org/2000/svg" xmlns:xlink="http://www.w3.org/1999/xlink">
<defs>
<filter color-interpolation-filters="sRGB" filterUnits="userSpaceOnUse" height="405" id="Filter" width="405" x="53.5" y="63.5">
<feDropShadow dx="6.12323e-16" dy="10" flood-color="#000000" flood-opacity="0.5" in="SourceGraphic" result="Shadow" stdDeviation="9"/>
</filter>
<radialGradient cx="75.4619" cy="76.1055" gradientTransform="matrix(1.00168 0 0 1 -0.128009 0)" gradientUnits="userSpaceOnUse" id="RadialGradient" r="509.316">
<stop offset="0" stop-color="#000000"/>
<stop offset="1" stop-color="#2f3741" stop-opacity="0.90819"/>
</radialGradient>
<radialGradient cx="255.584" cy="255.368" gradientTransform="matrix(1.00168 0 0 1 -0.128009 0)" gradientUnits="userSpaceOnUse" id="RadialGradient_2" r="159.401">
<stop offset="0" stop-color="#000000"/>
<stop offset="1" stop-color="#2f3741" stop-opacity="0.90819"/>
</radialGradient>
<radialGradient cx="283.483" cy="224.052" gradientTransform="matrix(1.00168 0 0 1 -0.128009 0)" gradientUnits="userSpaceOnUse" id="RadialGradient_3" r="10.6673">
<stop offset="0" stop-color="#000000"/>
<stop offset="1" stop-color="#2f3741" stop-opacity="0.90819"/>
</radialGradient>
<filter color-interpolation-filters="sRGB" filterUnits="userSpaceOnUse" height="405" id="Filter_2" width="404.395" x="53.5" y="63.5">
<feDropShadow dx="6.12323e-16" dy="10" flood-color="#000000" flood-opacity="0.5" in="SourceGraphic" result="Shadow" stdDeviation="9"/>
</filter>
<radialGradient cx="75.4619" cy="76.1055" gradientTransform="matrix(1 0 0 1 0 0)" gradientUnits="userSpaceOnUse" id="RadialGradient_4" r="509.316">
<stop offset="0" stop-color="#000000"/>
<stop offset="1" stop-color="#2f3741" stop-opacity="0.90819"/>
</radialGradient>
<radialGradient cx="255.584" cy="255.368" gradientTransform="matrix(1 0 0 1 0 0)" gradientUnits="userSpaceOnUse" id="RadialGradient_5" r="159.401">
<stop offset="0" stop-color="#000000"/>
<stop offset="1" stop-color="#2f3741" stop-opacity="0.90819"/>
</radialGradient>
<radialGradient cx="283.483" cy="224.052" gradientTransform="matrix(1 0 0 1 0 0)" gradientUnits="userSpaceOnUse" id="RadialGradient_6" r="10.6673">
<stop offset="0" stop-color="#000000"/>
<stop offset="1" stop-color="#2f3741" stop-opacity="0.90819"/>
</radialGradient>
</defs>
<g id="v1" visibility="hidden">
<g opacity="1">
<path d="M231.794 62.2432C207.438 65.3558 188.139 71.2698 166.429 82.2418C145.263 92.9025 129.622 104.186 113.125 120.683C79.2756 154.377 61.3002 194.14 57.4094 243.631C56.0087 261.139 58.1098 282.383 63.2456 302.537C66.6695 316.077 70.3268 325.804 77.3302 340.122C92.5042 371.17 115.46 397.316 145.03 417.471C169.619 434.279 194.831 444.239 224.401 448.83C237.552 450.853 267.433 451.243 280.818 449.608C320.892 444.628 353.886 429.843 386.18 402.53C425.476 369.225 449.677 321.524 453.256 270.322C453.568 266.12 454.112 262.696 454.579 262.696C455.435 262.696 455.046 255.77 453.256 240.051C451.545 224.877 450.689 220.053 447.654 207.914C444.074 193.751 440.806 184.803 433.647 170.329C418.629 139.436 395.907 113.757 366.726 94.381C342.214 78.1954 318.247 68.7019 288.21 63.4104C276.226 61.3094 244.478 60.6869 231.794 62.2432ZM285.097 69.2466C337.078 77.6507 383.145 105.431 412.092 145.817C431.001 172.196 442.829 203.167 446.642 236.161C447.965 247.989 447.187 274.446 445.086 286.819C437.071 333.819 414.038 372.805 376.453 402.764C348.439 425.097 319.57 437.391 282.763 442.605C271.947 444.161 236.852 443.928 225.257 442.216C198.178 438.17 173.51 428.754 150.632 413.735C133.513 402.452 122.385 392.803 110.557 379.108C85.2673 349.849 70.9493 318.567 65.191 280.204C63.5568 269.388 63.7903 238.962 65.58 227.29C70.7159 193.829 82.8551 166.127 104.099 139.358C125.731 112.045 160.593 88.0779 194.754 77.0281C205.414 73.6043 220.588 70.1026 229.848 69.0131C233.739 68.5463 237.708 68.0015 238.797 67.8459C243.622 66.9899 277.705 68.0794 285.097 69.2466Z" fill="#000000" fill-rule="nonzero" opacity="1" stroke="none"/>
<path d="M245.411 81.4636C221.289 82.7087 198.956 88.7783 176.545 100.139C122.619 127.375 87.8353 175.698 80.0537 234.137C78.8865 243.242 79.1199 267.442 80.4428 278.025C87.9909 335.764 124.953 386.033 179.268 412.49C204.014 424.63 225.569 429.376 255.527 429.454C272.102 429.532 280.506 428.676 294.824 425.641C320.114 420.272 346.416 407.432 367.737 390.235C371.083 387.59 377.698 381.442 382.367 376.773C414.971 344.168 431.779 302.771 431.779 255.537C431.779 223.788 423.998 194.763 408.201 167.761C398.397 150.953 382.834 132.9 367.971 121.072C345.871 103.408 318.636 90.4902 292.101 84.9653C275.604 81.6192 262.687 80.6076 245.411 81.4636ZM315.834 103.563C325.717 111.033 346.883 124.184 349.139 124.184C350.618 124.184 350.229 120.683 348.517 118.504C345.171 114.302 348.206 114.535 352.486 118.815C356.688 123.017 358.477 127.297 359.022 134.378C359.255 137.569 360.034 146.206 360.734 153.599C361.434 160.991 361.746 167.294 361.434 167.527C361.123 167.839 359.8 166.672 358.477 164.96C354.742 160.291 345.638 151.731 339.179 146.751C322.838 134.3 303.462 125.507 282.685 121.072C270.702 118.504 253.349 118.115 241.443 120.138C224.868 123.017 207.749 129.865 192.964 139.592C183.315 145.973 169.853 159.046 178.724 153.443C191.719 145.272 212.729 137.802 230.627 135.001C239.498 133.6 257.862 133.833 267.2 135.468C302.917 141.537 334.043 164.57 350.385 197.253C354.197 204.801 359.022 219.353 360.578 228.068C364.547 250.167 361.901 275.847 353.575 296.545C334.666 343.546 292.101 377.707 247.746 381.364C236.696 382.298 218.565 379.108 209.928 374.75C205.726 372.571 206.115 373.816 210.628 376.851C223.468 385.566 240.431 390.858 261.208 392.803C279.806 394.437 287.354 391.947 303.773 378.719C325.484 361.288 339.179 342.846 352.486 313.276L355.52 306.661L355.52 312.498C355.598 320.279 357.388 325.337 361.201 328.372C363.924 330.551 364.858 330.784 370.694 331.096C376.297 331.329 377.776 331.096 381.355 329.384C383.69 328.372 386.88 326.349 388.436 324.948C389.993 323.625 391.315 322.691 391.315 322.925C391.315 325.104 379.176 345.803 373.184 353.895C354.587 379.108 326.651 400.196 299.338 409.689C262.297 422.529 215.997 418.793 182.381 400.351C176.545 397.083 171.954 394.048 162.071 386.811C158.258 384.088 161.838 392.881 166.974 398.795C170.164 402.608 169.541 402.841 164.639 399.573C153.901 392.492 144.485 375.217 140.283 354.907C138.337 345.491 138.337 325.882 140.205 316.155C147.675 278.414 177.712 245.265 215.608 233.204C224.713 230.325 229.459 229.469 229.459 230.714C229.459 231.18 228.992 231.57 228.448 231.57C226.58 231.57 215.842 239.195 211.562 243.553C203.002 252.268 198.567 262.384 197.788 274.757C197.244 283.862 198.878 291.254 203.158 299.969C207.593 309.074 217.631 319.268 226.814 323.936C236.93 329.228 243.544 330.784 255.917 330.784C268.367 330.784 273.269 329.695 283.541 324.637C295.992 318.489 304.785 309.852 310.465 298.102C313.656 291.643 315.834 282.383 315.834 276.08C315.757 264.252 310.621 250.868 303.306 242.931L299.026 238.34L296.381 240.83C290.934 245.81 281.129 246.821 274.359 243.086C267.745 239.429 262.998 229.858 264.087 222.387C265.877 209.703 275.37 202.622 288.91 203.867L294.435 204.412L290.544 201.533C277.005 191.65 257.084 187.526 237.941 190.716C211.095 195.152 178.179 212.738 154.834 235.071C129.389 259.427 113.981 299.425 117.327 332.73C117.716 336.776 117.95 340.2 117.794 340.356C117.639 340.511 116.938 338.021 116.238 334.908C111.024 312.031 114.993 286.663 127.91 259.817C137.637 239.507 149.154 223.166 164.483 207.836C178.957 193.284 190.785 185.036 215.842 171.807C234.284 162.08 242.143 156.633 248.213 149.552L250.08 147.295L240.743 147.84C231.171 148.307 222.067 150.019 213.118 152.898C205.648 155.388 188.84 163.792 180.825 169.084C147.208 191.261 120.518 226.823 109.157 264.485C106.9 271.956 104.176 287.052 104.176 292.11C104.176 297.09 103.554 295.923 101.998 287.908C100.986 282.539 100.675 276.703 100.753 261.918C100.753 245.109 100.908 241.919 102.465 234.682C112.425 188.693 143.629 149.863 187.828 128.464C211.795 116.87 233.194 111.734 257.862 111.734C270.546 111.734 278.716 112.512 290.078 114.846C302.295 117.414 308.442 116.714 311.477 112.356C313.189 109.944 313.033 105.664 311.166 102.552C308.52 98.2717 308.909 98.3496 315.834 103.563Z" fill="#000000" fill-rule="nonzero" opacity="1" stroke="none"/>
<path d="M282.374 210.637C277.705 212.505 274.592 217.252 274.592 222.387C274.592 226.901 275.993 229.235 279.65 231.336C285.953 234.916 294.202 232.659 297.081 226.589C301.516 217.485 291.712 206.902 282.374 210.637Z" fill="#000000" fill-rule="nonzero" opacity="1" stroke="none"/>
</g>
</g>
<g id="macos" visibility="hidden">
<path d="M50 130C50 85.8172 85.8172 50 130 50L382 50C426.183 50 462 85.8172 462 130L462 382C462 426.183 426.183 462 382 462L130 462C85.8172 462 50 426.183 50 382L50 130Z" fill="#f3f3f3" fill-rule="nonzero" opacity="1" stroke="none"/>
<g filter="url(#Filter)">
<path d="M234.373 76.8035C212.307 79.6822 194.823 85.1517 175.154 95.2992C155.978 105.159 141.807 115.594 126.862 130.851C96.1944 162.013 79.9091 198.789 76.3841 244.56C75.1152 260.753 77.0186 280.4 81.6716 299.04C84.7736 311.563 88.087 320.558 94.4319 333.801C108.179 362.516 128.977 386.697 155.766 405.337C178.044 420.882 200.886 430.094 227.675 434.34C239.59 436.211 266.661 436.571 278.787 435.059C315.094 430.453 344.986 416.779 374.243 391.519C409.845 360.717 431.771 316.6 435.014 269.245C435.983 253.759 436.635 255.787 435.014 241.25C433.463 227.216 432.687 222.754 429.938 211.527C426.695 198.429 423.734 190.153 417.248 176.767C403.641 148.196 383.056 124.446 356.618 106.526C334.411 91.5569 312.697 82.7768 285.485 77.883C274.628 75.9399 245.864 75.3641 234.373 76.8035ZM282.665 83.2806C329.758 91.0531 371.494 116.746 397.719 154.097C414.851 178.494 425.567 207.137 429.021 237.652C430.22 248.591 429.515 273.06 427.611 284.503C426.481 291.269 425.021 297.856 423.233 304.259C413.534 338.994 394.182 368.34 365.431 391.735C340.051 412.389 313.896 423.76 280.55 428.582C270.75 430.022 238.955 429.806 228.451 428.222C203.917 424.48 181.569 415.772 160.842 401.882C145.332 391.447 135.251 382.523 124.535 369.856C101.623 342.797 88.651 313.865 83.4341 278.385C81.9536 268.382 82.1651 240.242 83.7866 229.447C88.4395 198.501 99.4374 172.881 118.684 148.124C138.282 122.863 169.866 100.697 200.815 90.4774C210.474 87.3108 224.221 84.0722 232.61 83.0647C236.135 82.6329 239.731 82.1291 240.718 81.9852C245.089 81.1935 275.967 82.2011 282.665 83.2806Z" fill="url(#RadialGradient)" fill-rule="nonzero" opacity="1" stroke="none"/>
<path d="M246.71 94.5795C224.855 95.731 204.622 101.344 184.318 111.852C135.462 137.041 103.949 181.733 96.8994 235.78C95.8419 244.201 96.0534 266.583 97.2519 276.37C104.09 329.77 137.577 376.262 186.786 400.731C209.205 411.958 228.733 416.348 255.875 416.42C270.891 416.492 278.505 415.7 291.477 412.893C314.389 407.927 338.218 396.053 357.535 380.148C360.566 377.701 366.559 372.015 370.789 367.697C400.328 337.543 415.556 299.256 415.556 255.572C415.556 226.209 408.506 199.365 394.195 174.392C385.312 158.847 371.212 142.15 357.746 131.211C337.725 114.874 313.05 102.928 289.01 97.8181C274.064 94.7235 262.361 93.7879 246.71 94.5795ZM310.512 115.018C319.465 121.927 338.641 134.09 340.686 134.09C342.025 134.09 341.673 130.851 340.122 128.836C337.09 124.95 339.84 125.166 343.717 129.124C347.524 133.01 349.146 136.969 349.639 143.518C349.851 146.468 350.556 154.457 351.19 161.294C351.825 168.131 352.107 173.96 351.825 174.176C351.543 174.464 350.344 173.384 349.146 171.801C345.762 167.483 337.513 159.566 331.662 154.961C316.857 143.446 299.303 135.313 280.479 131.211C269.622 128.836 253.901 128.476 243.115 130.348C228.098 133.01 212.589 139.344 199.194 148.339C190.452 154.241 178.255 166.331 186.292 161.15C198.066 153.593 217.101 146.684 233.315 144.093C241.352 142.798 257.99 143.014 266.45 144.525C298.809 150.139 327.009 171.441 341.814 201.668C345.268 208.649 349.639 222.107 351.049 230.167C354.644 250.606 352.248 274.355 344.704 293.499C327.573 336.967 289.01 368.561 248.825 371.944C238.814 372.807 222.388 369.856 214.563 365.826C210.756 363.811 211.108 364.963 215.197 367.769C226.829 375.83 242.198 380.724 261.022 382.523C277.871 384.034 284.709 381.731 299.585 369.497C319.254 353.376 331.662 336.319 343.717 308.972L346.467 302.854L346.467 308.252C346.537 315.449 348.159 320.127 351.613 322.933C354.08 324.949 354.926 325.164 360.214 325.452C365.29 325.668 366.629 325.452 369.872 323.869C371.987 322.933 374.878 321.062 376.288 319.767C377.698 318.543 378.896 317.68 378.896 317.896C378.896 319.911 367.898 339.054 362.47 346.539C345.621 369.856 320.311 389.36 295.566 398.14C262.009 410.014 220.062 406.56 189.606 389.504C184.318 386.481 180.159 383.674 171.206 376.981C167.751 374.462 170.994 382.595 175.647 388.064C178.537 391.591 177.973 391.807 173.532 388.784C163.803 382.235 155.273 366.258 151.466 347.474C149.703 338.766 149.703 320.63 151.395 311.634C158.163 276.73 185.376 246.072 219.709 234.917C227.957 232.254 229.328 232.771 228.834 232.771C227.142 232.771 219.921 240.458 216.043 244.488C208.288 252.549 204.27 261.905 203.565 273.348C203.071 281.768 204.552 288.605 208.429 296.665C212.448 305.085 221.542 314.513 229.861 318.831C239.026 323.725 245.018 325.164 256.228 325.164C267.507 325.164 271.949 324.157 281.255 319.479C292.535 313.794 300.501 305.805 305.648 294.938C308.538 288.965 310.512 280.4 310.512 274.571C310.441 263.632 305.789 251.253 299.162 243.913L295.284 239.667L292.887 241.97C287.952 246.576 279.069 247.511 272.936 244.057C266.943 240.674 262.643 231.822 263.63 224.913C264.29 220.136 267.32 214.845 273.147 212.095C281.628 208.091 293.707 208.845 293.707 208.845L289.377 203.353C277.11 194.213 257.285 192.672 239.942 195.622C215.62 199.725 185.799 215.989 164.649 236.644C141.596 259.17 127.637 296.161 130.669 326.964C131.021 330.706 131.233 333.873 131.092 334.016C130.951 334.16 130.316 331.857 129.682 328.979C124.958 307.82 128.554 284.359 140.256 259.53C149.069 240.746 159.503 225.633 173.391 211.455C186.504 197.997 197.22 190.369 219.921 178.134C236.629 169.138 243.749 164.1 249.248 157.551L250.94 155.464L242.48 155.968C233.809 156.4 225.56 157.983 217.453 160.646C210.685 162.949 195.457 170.721 188.196 175.615C157.74 196.126 133.559 229.015 123.266 263.848C121.222 270.757 118.754 284.719 118.754 289.396C118.754 294.002 118.19 292.923 116.78 285.51C115.864 280.544 115.582 275.147 115.652 261.473C115.652 245.928 115.793 242.977 117.203 236.284C126.227 193.751 154.497 157.839 194.541 138.048C216.255 127.325 235.642 122.575 257.99 122.575C269.481 122.575 276.884 123.295 287.177 125.454C298.245 127.829 303.815 127.181 306.564 123.151C308.115 120.92 307.974 116.962 306.282 114.083C303.885 110.125 304.238 110.197 310.512 115.018Z" fill="url(#RadialGradient_2)" fill-rule="nonzero" opacity="1" stroke="none"/>
<path d="M281.634 214.651C277.073 214.95 273.147 219.305 273.147 224.055C273.147 228.229 274.416 231.246 277.73 233.19C283.44 236.5 289.942 235.071 292.55 229.458C296.568 221.038 289.433 214.14 281.634 214.651Z" fill="url(#RadialGradient_3)" fill-rule="nonzero" opacity="1" stroke="none"/>
</g>
</g>
<g id="icon">
<g filter="url(#Filter_2)">
<path d="M234.107 76.8035C212.077 79.6822 194.623 85.1517 174.987 95.2992C155.843 105.159 141.697 115.594 126.776 130.851C96.1605 162.013 79.9025 198.789 76.3835 244.56C75.1167 260.753 77.0169 280.4 81.6621 299.04C84.7588 311.563 88.0667 320.558 94.401 333.801C108.125 362.516 128.887 386.697 155.632 405.337C177.872 420.882 200.676 430.094 227.42 434.34C239.315 436.211 266.341 436.571 278.446 435.059C314.692 430.453 344.534 416.779 373.742 391.519C409.284 360.717 431.172 316.6 434.41 269.245C435.377 253.759 436.029 255.787 434.41 241.25C432.862 227.216 432.087 222.754 429.342 211.527C426.105 198.429 423.149 190.153 416.674 176.767C403.09 148.196 382.539 124.446 356.147 106.526C333.977 91.5569 312.299 82.7768 285.133 77.883C274.294 75.9399 245.579 75.3641 234.107 76.8035ZM282.317 83.2806C329.332 91.0531 370.997 116.746 397.179 154.097C414.281 178.494 424.979 207.137 428.428 237.652C429.624 248.591 428.92 273.06 427.02 284.503C425.892 291.269 424.434 297.856 422.649 304.259C412.966 338.994 393.647 368.34 364.944 391.735C339.607 412.389 313.496 423.76 280.206 428.582C270.423 430.022 238.681 429.806 228.195 428.222C203.702 424.48 181.391 415.772 160.7 401.882C145.216 391.447 135.151 382.523 124.453 369.856C101.58 342.797 88.6297 313.865 83.4216 278.385C81.9436 268.382 82.1547 240.242 83.7735 229.447C88.4186 198.501 99.398 172.881 118.612 148.124C138.178 122.863 169.708 100.697 200.605 90.4774C210.248 87.3108 223.972 84.0722 232.347 83.0647C235.866 82.6329 239.455 82.1291 240.441 81.9852C244.804 81.1935 275.631 82.2011 282.317 83.2806Z" fill="url(#RadialGradient_4)" fill-rule="nonzero" opacity="1" stroke="none"/>
<path d="M246.423 94.5795C224.605 95.731 204.406 101.344 184.136 111.852C135.362 137.041 103.902 181.733 96.8643 235.78C95.8086 244.201 96.0197 266.583 97.2162 276.37C104.043 329.77 137.474 376.262 186.6 400.731C208.981 411.958 228.476 416.348 255.573 416.42C270.564 416.492 278.165 415.7 291.115 412.893C313.989 407.927 337.777 396.053 357.062 380.148C360.088 377.701 366.07 372.015 370.293 367.697C399.783 337.543 414.985 299.256 414.985 255.572C414.985 226.209 407.947 199.365 393.659 174.392C384.792 158.847 370.715 142.15 357.273 131.211C337.285 114.874 312.651 102.928 288.652 97.8181C273.731 94.7235 262.048 93.7879 246.423 94.5795ZM310.118 115.018C319.056 121.927 338.2 134.09 340.241 134.09C341.578 134.09 341.226 130.851 339.678 128.836C336.651 124.95 339.396 125.166 343.267 129.124C347.067 133.01 348.686 136.969 349.179 143.518C349.39 146.468 350.094 154.457 350.727 161.294C351.361 168.131 351.642 173.96 351.361 174.176C351.079 174.464 349.883 173.384 348.686 171.801C345.308 167.483 337.073 159.566 331.232 154.961C316.452 143.446 298.927 135.313 280.135 131.211C269.297 128.836 253.602 128.476 242.834 130.348C227.843 133.01 212.359 139.344 198.987 148.339C190.259 154.241 178.084 166.331 186.107 161.15C197.861 153.593 216.863 146.684 233.051 144.093C241.074 142.798 257.684 143.014 266.13 144.525C298.434 150.139 326.587 171.441 341.367 201.668C344.815 208.649 349.179 222.107 350.587 230.167C354.176 250.606 351.783 274.355 344.252 293.499C327.15 336.967 288.652 368.561 248.535 371.944C238.541 372.807 222.142 369.856 214.33 365.826C210.529 363.811 210.881 364.963 214.963 367.769C226.576 375.83 241.919 380.724 260.71 382.523C277.531 384.034 284.358 381.731 299.209 369.497C318.845 353.376 331.232 336.319 343.267 308.972L346.012 302.854L346.012 308.252C346.082 315.449 347.701 320.127 351.15 322.933C353.613 324.949 354.457 325.164 359.736 325.452C364.803 325.668 366.141 325.452 369.378 323.869C371.49 322.933 374.375 321.062 375.783 319.767C377.19 318.543 378.387 317.68 378.387 317.896C378.387 319.911 367.407 339.054 361.988 346.539C345.167 369.856 319.901 389.36 295.197 398.14C261.696 410.014 219.819 406.56 189.415 389.504C184.136 386.481 179.984 383.674 171.045 376.981C167.597 374.462 170.834 382.595 175.479 388.064C178.365 391.591 177.802 391.807 173.368 388.784C163.656 382.235 155.139 366.258 151.339 347.474C149.579 338.766 149.579 320.63 151.269 311.634C158.025 276.73 185.192 246.072 219.467 234.917C227.702 232.254 229.07 232.771 228.577 232.771C226.888 232.771 219.679 240.458 215.808 244.488C208.066 252.549 204.054 261.905 203.35 273.348C202.858 281.768 204.336 288.605 208.206 296.665C212.218 305.085 221.297 314.513 229.602 318.831C238.752 323.725 244.734 325.164 255.925 325.164C267.185 325.164 271.619 324.157 280.91 319.479C292.171 313.794 300.124 305.805 305.261 294.938C308.147 288.965 310.118 280.4 310.118 274.571C310.047 263.632 305.402 251.253 298.786 243.913L294.915 239.667L292.522 241.97C287.596 246.576 278.728 247.511 272.605 244.057C266.622 240.674 262.329 231.822 263.315 224.913C263.974 220.136 266.999 214.845 272.816 212.095C281.282 208.091 293.34 208.845 293.34 208.845L289.018 203.353C276.772 194.213 256.98 192.672 239.667 195.622C215.385 199.725 185.614 215.989 164.5 236.644C141.486 259.17 127.55 296.161 130.577 326.964C130.929 330.706 131.14 333.873 130.999 334.016C130.858 334.16 130.225 331.857 129.591 328.979C124.876 307.82 128.465 284.359 140.148 259.53C148.946 240.746 159.362 225.633 173.227 211.455C186.318 197.997 197.016 190.369 219.679 178.134C236.359 169.138 243.467 164.1 248.957 157.551L250.646 155.464L242.2 155.968C233.543 156.4 225.309 157.983 217.215 160.646C210.459 162.949 195.256 170.721 188.007 175.615C157.603 196.126 133.462 229.015 123.187 263.848C121.146 270.757 118.682 284.719 118.682 289.396C118.682 294.002 118.119 292.923 116.712 285.51C115.797 280.544 115.515 275.147 115.586 261.473C115.586 245.928 115.726 242.977 117.134 236.284C126.143 193.751 154.365 157.839 194.341 138.048C216.019 127.325 235.373 122.575 257.684 122.575C269.156 122.575 276.546 123.295 286.822 125.454C297.871 127.829 303.431 127.181 306.176 123.151C307.725 120.92 307.584 116.962 305.895 114.083C303.502 110.125 303.854 110.197 310.118 115.018Z" fill="url(#RadialGradient_5)" fill-rule="nonzero" opacity="1" stroke="none"/>
<path d="M281.288 214.651C276.735 214.95 272.816 219.305 272.816 224.055C272.816 228.229 274.083 231.246 277.391 233.19C283.091 236.5 289.582 235.071 292.186 229.458C296.198 221.038 289.074 214.14 281.288 214.651Z" fill="url(#RadialGradient_6)" fill-rule="nonzero" opacity="1" stroke="none"/>
</g>
</g>
</svg>
