<?xml version="1.0" encoding="UTF-8" standalone="no"?>
<!DOCTYPE svg PUBLIC "-//W3C//DTD SVG 1.1//EN" "http://www.w3.org/Graphics/SVG/1.1/DTD/svg11.dtd">
<!-- Created with Vectornator (http://vectornator.io/) -->
<svg height="576.0pt" stroke-miterlimit="10" style="fill-rule:nonzero;clip-rule:evenodd;stroke-linecap:round;stroke-linejoin:round;" version="1.1" viewBox="0 0 1024 576" width="1024.0pt" xml:space="preserve" xmlns="http://www.w3.org/2000/svg" xmlns:xlink="http://www.w3.org/1999/xlink">
<defs>
<linearGradient gradientTransform="matrix(0.777332 0 0 0.639217 92.7072 109.282)" gradientUnits="userSpaceOnUse" id="LinearGradient" x1="-120.153" x2="1180.01" y1="-171.08" y2="715.869">
<stop offset="0" stop-color="#ececec"/>
<stop offset="1" stop-color="#a3a3a3" stop-opacity="0.90819"/>
</linearGradient>
<filter color-interpolation-filters="sRGB" filterUnits="userSpaceOnUse" height="245.24" id="Filter" width="447" x="102.24" y="90.26">
<feDropShadow dx="6.12323e-16" dy="10" flood-color="#000000" flood-opacity="0.5" in="SourceGraphic" result="Shadow" stdDeviation="15"/>
</filter>
<filter color-interpolation-filters="sRGB" filterUnits="userSpaceOnUse" height="773.121" id="Filter_2" width="771.965" x="469.049" y="56.5924">
<feDropShadow dx="1.16889e-15" dy="19.0894" flood-color="#000000" flood-opacity="0.5" in="SourceGraphic" result="Shadow" stdDeviation="17.1805"/>
</filter>
<radialGradient cx="75.4619" cy="76.1055" gradientTransform="matrix(1.90894 0 0 1.90894 366.92 -64.6253)" gradientUnits="userSpaceOnUse" id="RadialGradient" r="509.316">
<stop offset="0" stop-color="#000000"/>
<stop offset="1" stop-color="#2f3741" stop-opacity="0.90819"/>
</radialGradient>
<radialGradient cx="255.584" cy="255.368" gradientTransform="matrix(1.90894 0 0 1.90894 366.92 -64.6253)" gradientUnits="userSpaceOnUse" id="RadialGradient_2" r="159.401">
<stop offset="0" stop-color="#000000"/>
<stop offset="1" stop-color="#2f3741" stop-opacity="0.90819"/>
</radialGradient>
<radialGradient cx="283.483" cy="224.052" gradientTransform="matrix(1.90894 0 0 1.90894 366.92 -64.6253)" gradientUnits="userSpaceOnUse" id="RadialGradient_3" r="10.6673">
<stop offset="0" stop-color="#000000"/>
<stop offset="1" stop-color="#2f3741" stop-opacity="0.90819"/>
</radialGradient>
<filter color-interpolation-filters="sRGB" filterUnits="userSpaceOnUse" height="1058" id="Filter_3" width="1058" x="326.032" y="-94.9365">
<feDropShadow dx="6.12323e-16" dy="10" flood-color="#000000" flood-opacity="0.5" in="SourceGraphic" result="Shadow" stdDeviation="10"/>
</filter>
<filter color-interpolation-filters="sRGB" filterUnits="userSpaceOnUse" height="958" id="Filter_4" width="958" x="376.032" y="-44.9365">
<feDropShadow dx="6.12323e-16" dy="10" flood-color="#000000" flood-opacity="0.5" in="SourceGraphic" result="Shadow" stdDeviation="10"/>
</filter>
<filter color-interpolation-filters="sRGB" filterUnits="userSpaceOnUse" height="858" id="Filter_5" width="858" x="426.032" y="5.06354">
<feDropShadow dx="6.12323e-16" dy="10" flood-color="#000000" flood-opacity="0.5" in="SourceGraphic" result="Shadow" stdDeviation="10"/>
</filter>
</defs>
<clipPath id="ArtboardFrame">
<rect height="576" width="1024" x="0" y="0"/>
</clipPath>
<g clip-path="url(#ArtboardFrame)" id="图层-1">
<path d="M0 1.60397C0 0.718121 0.873284-2.24216e-14 1.95053-2.24216e-14L1022.05-2.24216e-14C1023.13-2.24216e-14 1024 0.718121 1024 1.60397L1024 574.396C1024 575.282 1023.13 576 1022.05 576L1.95053 576C0.873284 576 0 575.282 0 574.396L0 1.60397Z" fill="url(#LinearGradient)" fill-rule="nonzero" opacity="1" stroke="none"/>
</g>
<g clip-path="url(#ArtboardFrame)" id="图层-2">
<g fill="#2d2d2d" filter="url(#Filter)" stroke="none">
<path d="M190.78 180.8C183.953 180.8 178.54 178.933 174.54 175.2C170.54 171.467 168.54 166.4 168.54 160C168.54 152.747 170.46 145.867 174.3 139.36C178.14 132.853 183.287 127.627 189.74 123.68C196.193 119.733 203.1 117.76 210.46 117.76C213.66 117.76 216.487 118.08 218.94 118.72C221.393 119.36 224.7 120.373 228.86 121.76C232.38 123.147 235.5 124.187 238.22 124.88C240.94 125.573 243.9 125.92 247.1 125.92C254.14 125.92 261.18 124.107 268.22 120.48C265.02 123.68 261.393 126.187 257.34 128C253.287 129.813 249.02 130.72 244.54 130.72C241.553 130.72 238.753 130.373 236.14 129.68C233.527 128.987 230.353 127.947 226.62 126.56C222.78 125.173 219.607 124.16 217.1 123.52C214.593 122.88 211.953 122.56 209.18 122.56C203.207 122.56 197.58 124.32 192.3 127.84C187.02 131.36 182.807 135.893 179.66 141.44C176.513 146.987 174.94 152.693 174.94 158.56C174.94 163.893 176.593 168.133 179.9 171.28C183.207 174.427 187.953 176 194.14 176C200.86 176 207.1 173.813 212.86 169.44C207.74 177.013 200.38 180.8 190.78 180.8ZM218.62 155.52C227.367 155.52 234.247 157.44 239.26 161.28C244.273 165.12 246.78 170.773 246.78 178.24C246.78 188.16 243.82 197.2 237.9 205.36C231.98 213.52 224.06 220.053 214.14 224.96C217.02 229.12 219.58 233.653 221.82 238.56C218.513 233.44 215.367 229.173 212.38 225.76C201.927 230.56 190.833 232.96 179.1 232.96C170.14 232.96 162.193 231.973 155.26 230C148.327 228.027 143.473 225.387 140.7 222.08C140.06 220.267 139.74 218.293 139.74 216.16C139.74 209.867 142.007 204.827 146.54 201.04C151.073 197.253 157.18 195.36 164.86 195.36C174.14 195.36 182.727 197.707 190.62 202.4C198.513 207.093 205.447 213.28 211.42 220.96C220.167 216.693 227.18 210.88 232.46 203.52C237.74 196.16 240.38 188.053 240.38 179.2C240.38 172.693 238.247 167.84 233.98 164.64C229.713 161.44 223.687 159.84 215.9 159.84C211.42 159.84 207.26 160.613 203.42 162.16C199.58 163.707 195.793 166.08 192.06 169.28C197.82 160.107 206.673 155.52 218.62 155.52ZM180.22 228.16C190.247 228.16 199.9 226.133 209.18 222.08C202.78 215.253 195.74 209.893 188.06 206C180.38 202.107 172.273 200.16 163.74 200.16C158.193 200.16 153.767 202.16 150.46 206.16C147.153 210.16 145.5 215.52 145.5 222.24C148.06 224.053 152.38 225.493 158.46 226.56C164.54 227.627 171.793 228.16 180.22 228.16Z"/>
<path d="M325.82 168C326.247 171.84 326.46 174.72 326.46 176.64C326.46 186.773 324.3 196.133 319.98 204.72C315.66 213.307 309.633 220.16 301.9 225.28C294.167 230.4 285.5 232.96 275.9 232.96C271.74 232.96 267.633 232.533 263.58 231.68L250.14 285.28C249.927 286.133 249.5 286.8 248.86 287.28C248.22 287.76 247.473 288 246.62 288C245.767 288 245.127 287.76 244.7 287.28C244.273 286.8 244.167 286.133 244.38 285.28L258.14 230.08C252.38 228.267 248.433 225.76 246.3 222.56C250.673 224.053 254.94 225.227 259.1 226.08L274.62 164C274.727 163.68 274.78 163.253 274.78 162.72C274.78 161.867 274.3 161.44 273.34 161.44C272.167 161.44 270.54 161.947 268.46 162.96C266.38 163.973 263.527 165.653 259.9 168C263.313 164.267 266.78 161.2 270.3 158.8C273.82 156.4 276.593 155.2 278.62 155.2C279.793 155.2 280.593 155.36 281.02 155.68C281.447 156 281.66 156.64 281.66 157.6C281.66 158.667 281.447 160 281.02 161.6L277.82 174.72C281.447 168.853 286.193 164.027 292.06 160.24C297.927 156.453 303.26 154.56 308.06 154.56C314.78 154.56 320.7 159.04 325.82 168ZM275.9 228.16C284.967 228.16 292.94 225.627 299.82 220.56C306.7 215.493 311.98 208.747 315.66 200.32C319.34 191.893 321.18 182.72 321.18 172.8C321.18 171.52 321.073 169.493 320.86 166.72C319.473 164.587 317.473 162.827 314.86 161.44C312.247 160.053 309.713 159.36 307.26 159.36C304.167 159.36 300.593 160.507 296.54 162.8C292.487 165.093 288.513 168.32 284.62 172.48C280.727 176.64 277.447 181.387 274.78 186.72L264.7 227.2C268.54 227.84 272.273 228.16 275.9 228.16Z"/>
<path d="M364.54 136.16C362.833 136.16 361.447 135.653 360.38 134.64C359.313 133.627 358.78 132.32 358.78 130.72C358.78 128.373 359.74 126.347 361.66 124.64C363.58 122.933 365.713 122.08 368.06 122.08C369.767 122.08 371.153 122.587 372.22 123.6C373.287 124.613 373.82 125.92 373.82 127.52C373.82 129.867 372.86 131.893 370.94 133.6C369.02 135.307 366.887 136.16 364.54 136.16ZM341.82 232.32C340.113 232.32 339.26 231.52 339.26 229.92C339.26 228.853 339.473 227.52 339.9 225.92L355.42 164C355.527 163.68 355.58 163.253 355.58 162.72C355.58 161.867 355.1 161.44 354.14 161.44C351.793 161.44 347.26 163.627 340.54 168C344.06 164.16 347.553 161.067 351.02 158.72C354.487 156.373 357.393 155.2 359.74 155.2C360.7 155.2 361.393 155.36 361.82 155.68C362.247 156 362.46 156.533 362.46 157.28C362.46 158.027 362.193 159.467 361.66 161.6L346.3 223.52C346.193 223.84 346.14 224.267 346.14 224.8C346.14 225.653 346.62 226.08 347.58 226.08C349.927 226.08 354.407 223.893 361.02 219.52C357.607 223.253 354.14 226.32 350.62 228.72C347.1 231.12 344.167 232.32 341.82 232.32Z"/>
<path d="M376.38 232.32C375.527 232.32 374.913 232.08 374.54 231.6C374.167 231.12 374.087 230.453 374.3 229.6L390.46 164.32C390.567 164 390.62 163.573 390.62 163.04C390.62 162.187 390.14 161.76 389.18 161.76C388.007 161.76 386.38 162.267 384.3 163.28C382.22 164.293 379.367 165.973 375.74 168.32C379.26 164.48 382.753 161.387 386.22 159.04C389.687 156.693 392.593 155.52 394.94 155.52C396.647 155.52 397.5 156.32 397.5 157.92C397.5 158.987 397.287 160.32 396.86 161.92L393.82 174.4C403.313 161.173 412.807 154.56 422.3 154.56C425.5 154.56 427.98 155.2 429.74 156.48C431.5 157.76 432.38 159.68 432.38 162.24C432.38 164.8 431.687 167.147 430.3 169.28C428.913 171.413 427.153 172.48 425.02 172.48C423.207 172.48 422.087 171.627 421.66 169.92C422.94 169.813 424.007 169.253 424.86 168.24C425.713 167.227 426.14 165.867 426.14 164.16C426.14 161.173 424.22 159.68 420.38 159.68C416.113 159.68 411.473 161.84 406.46 166.16C401.447 170.48 396.327 176.853 391.1 185.28L380.06 229.6C379.847 230.453 379.393 231.12 378.7 231.6C378.007 232.08 377.233 232.32 376.38 232.32Z"/>
<path d="M458.78 136.16C457.073 136.16 455.687 135.653 454.62 134.64C453.553 133.627 453.02 132.32 453.02 130.72C453.02 128.373 453.98 126.347 455.9 124.64C457.82 122.933 459.953 122.08 462.3 122.08C464.007 122.08 465.393 122.587 466.46 123.6C467.527 124.613 468.06 125.92 468.06 127.52C468.06 129.867 467.1 131.893 465.18 133.6C463.26 135.307 461.127 136.16 458.78 136.16ZM436.06 232.32C434.353 232.32 433.5 231.52 433.5 229.92C433.5 228.853 433.713 227.52 434.14 225.92L449.66 164C449.767 163.68 449.82 163.253 449.82 162.72C449.82 161.867 449.34 161.44 448.38 161.44C446.033 161.44 441.5 163.627 434.78 168C438.3 164.16 441.793 161.067 445.26 158.72C448.727 156.373 451.633 155.2 453.98 155.2C454.94 155.2 455.633 155.36 456.06 155.68C456.487 156 456.7 156.533 456.7 157.28C456.7 158.027 456.433 159.467 455.9 161.6L440.54 223.52C440.433 223.84 440.38 224.267 440.38 224.8C440.38 225.653 440.86 226.08 441.82 226.08C444.167 226.08 448.647 223.893 455.26 219.52C451.847 223.253 448.38 226.32 444.86 228.72C441.34 231.12 438.407 232.32 436.06 232.32Z"/>
<path d="M476.86 222.56C476.753 222.773 476.7 223.04 476.7 223.36C476.7 224.427 477.447 224.96 478.94 224.96C480.967 224.96 483.607 224.48 486.86 223.52C490.113 222.56 493.82 221.013 497.98 218.88C493.713 222.613 489.367 225.627 484.94 227.92C480.513 230.213 476.753 231.36 473.66 231.36C472.38 231.36 471.447 231.173 470.86 230.8C470.273 230.427 469.98 229.76 469.98 228.8C469.98 227.627 470.193 226.347 470.62 224.96L486.62 160.8L474.46 160.8L475.58 156.16L487.74 156.16L491.42 141.28C491.953 139.467 493.127 138.56 494.94 138.56C495.793 138.56 496.433 138.827 496.86 139.36C497.287 139.893 497.393 140.533 497.18 141.28L493.5 156.16L511.74 156.16L510.62 160.8L492.38 160.8L476.86 222.56Z"/>
</g>
<g filter="url(#Filter_2)">
<path d="M813.816 81.988C771.764 87.4832 738.444 97.9243 700.96 117.295C664.416 136.117 637.411 156.037 608.928 185.162C550.485 244.649 519.45 314.851 512.732 402.226C510.314 433.137 513.941 470.643 522.809 506.225C528.72 530.129 535.035 547.302 547.126 572.58C573.325 627.396 612.959 673.556 664.013 709.138C706.468 738.813 749.999 756.398 801.053 764.503C823.758 768.075 875.349 768.762 898.458 765.877C967.65 757.085 1024.62 730.982 1080.37 682.761C1148.22 623.961 1190 539.746 1196.18 449.348C1198.03 419.785 1199.27 423.658 1196.18 395.907C1193.23 369.117 1191.75 360.599 1186.51 339.168C1180.33 314.164 1174.69 298.365 1162.33 272.812C1136.4 218.271 1097.17 172.935 1046.78 138.727C1004.46 110.151 963.082 93.3907 911.222 84.0487C890.531 80.3394 835.716 79.2403 813.816 81.988ZM905.848 94.3524C995.595 109.19 1075.13 158.235 1125.11 229.537C1157.76 276.109 1178.18 330.787 1184.76 389.037C1187.05 409.92 1185.7 456.63 1182.08 478.473C1179.92 491.39 1177.14 503.963 1173.73 516.187C1155.25 582.494 1118.37 638.514 1063.58 683.173C1015.21 722.602 965.366 744.308 901.817 753.513C883.142 756.26 822.549 755.848 802.53 752.826C755.776 745.682 713.186 729.059 673.686 702.544C644.129 682.623 624.916 665.588 604.495 641.409C560.83 589.753 536.109 534.525 526.167 466.796C523.346 447.7 523.749 393.983 526.839 373.376C535.706 314.301 556.665 265.393 593.344 218.134C630.694 169.913 690.884 127.599 749.864 108.091C768.271 102.046 794.469 95.8636 810.457 93.9402C817.175 93.1159 824.027 92.1542 825.908 91.8795C834.238 90.3683 893.084 92.2916 905.848 94.3524Z" fill="url(#RadialGradient)" fill-rule="nonzero" opacity="1" stroke="none"/>
<path d="M837.328 115.921C795.678 118.12 757.119 128.835 718.426 148.893C625.319 196.977 565.264 282.291 551.829 385.465C549.813 401.539 550.216 444.265 552.5 462.949C565.533 564.887 629.35 653.636 723.128 700.346C765.852 721.777 803.068 730.158 854.794 730.295C883.411 730.432 897.921 728.921 922.642 723.563C966.306 714.084 1011.72 691.416 1048.53 661.054C1054.31 656.383 1065.73 645.53 1073.79 637.287C1130.08 579.724 1159.1 506.637 1159.1 423.246C1159.1 367.194 1145.67 315.95 1118.39 268.278C1101.46 238.604 1074.59 206.731 1048.93 185.849C1010.78 154.663 963.753 131.858 917.939 122.104C889.457 116.196 867.154 114.41 837.328 115.921ZM958.917 154.938C975.98 168.127 1012.52 191.344 1016.42 191.344C1018.97 191.344 1018.3 185.162 1015.34 181.315C1009.57 173.897 1014.81 174.309 1022.2 181.865C1029.45 189.284 1032.54 196.84 1033.48 209.341C1033.89 214.974 1035.23 230.223 1036.44 243.275C1037.65 256.326 1038.18 267.454 1037.65 267.866C1037.11 268.416 1034.83 266.355 1032.54 263.333C1026.09 255.09 1010.37 239.978 999.222 231.185C971.008 209.204 937.555 193.68 901.683 185.849C880.992 181.315 851.032 180.628 830.476 184.2C801.859 189.284 772.301 201.373 746.774 218.546C730.114 229.811 706.871 252.892 722.188 243C744.625 228.575 780.9 215.386 811.801 210.44C827.117 207.968 858.824 208.38 874.946 211.265C936.614 221.981 990.355 262.646 1018.57 320.346C1025.15 333.672 1033.48 359.363 1036.17 374.75C1043.02 413.766 1038.45 459.102 1024.08 495.646C991.43 578.625 917.939 638.936 841.358 645.393C822.28 647.041 790.976 641.409 776.063 633.715C768.808 629.869 769.48 632.067 777.272 637.425C799.44 652.811 828.729 662.153 864.601 665.588C896.712 668.473 909.744 664.077 938.092 640.722C975.576 609.948 999.222 577.389 1022.2 525.183L1027.44 513.506L1027.44 523.809C1027.57 537.548 1030.66 546.478 1037.24 551.835C1041.95 555.682 1043.56 556.094 1053.64 556.644C1063.31 557.056 1065.86 556.644 1072.04 553.621C1076.07 551.835 1081.58 548.264 1084.27 545.791C1086.95 543.455 1089.24 541.807 1089.24 542.219C1089.24 546.065 1068.28 582.609 1057.93 596.897C1025.82 641.409 977.592 678.639 930.434 695.4C866.482 718.068 786.542 711.474 728.502 678.914C718.426 673.144 710.499 667.786 693.436 655.01C686.853 650.201 693.033 665.725 701.9 676.166C707.409 682.898 706.334 683.31 697.87 677.54C679.329 665.039 663.073 634.54 655.818 598.683C652.459 582.06 652.459 547.439 655.683 530.266C668.581 463.636 720.441 405.111 785.871 383.817C801.59 378.734 804.201 379.721 803.261 379.721C800.036 379.721 786.274 394.395 778.884 402.089C764.106 417.476 756.448 435.335 755.104 457.179C754.164 473.253 756.985 486.304 764.374 501.691C772.032 517.765 789.364 535.762 805.217 544.005C822.683 553.347 834.103 556.094 855.465 556.094C876.962 556.094 885.426 554.171 903.16 545.241C924.657 534.388 939.839 519.138 949.646 498.394C955.155 486.991 958.917 470.643 958.917 459.515C958.782 438.632 949.915 415.003 937.286 400.99L929.897 392.884L925.329 397.28C915.924 406.073 898.996 407.859 887.307 401.264C875.887 394.807 867.691 377.909 869.572 364.721C870.831 355.601 876.605 345.502 887.71 340.251C903.872 332.608 926.89 334.048 926.89 334.048L918.639 323.563C895.262 306.116 857.481 303.173 824.43 308.806C778.078 316.637 721.247 347.685 680.941 387.114C637.008 430.115 610.406 500.729 616.184 559.529C616.855 566.673 617.258 572.718 616.99 572.992C616.721 573.267 615.512 568.871 614.303 563.376C605.301 522.985 612.153 478.199 634.455 430.802C651.25 394.945 671.134 366.095 697.601 339.03C722.591 313.34 743.012 298.777 786.274 275.422C818.115 258.249 831.685 248.633 842.164 236.131L845.389 232.147L829.267 233.109C812.741 233.933 797.022 236.955 781.571 242.038C768.674 246.435 739.653 261.272 725.815 270.614C667.775 309.768 621.692 372.552 602.076 439.045C598.18 452.233 593.478 478.885 593.478 487.815C593.478 496.608 592.403 494.547 589.716 480.397C587.969 470.917 587.432 460.614 587.566 434.511C587.566 404.836 587.835 399.204 590.522 386.427C607.719 305.234 661.595 236.68 737.907 198.9C779.287 178.43 816.234 169.363 858.824 169.363C880.724 169.363 894.831 170.737 914.446 174.858C935.539 179.392 946.153 178.156 951.393 170.462C954.349 166.203 954.08 158.647 950.856 153.152C946.288 145.596 946.959 145.733 958.917 154.938Z" fill="url(#RadialGradient_2)" fill-rule="nonzero" opacity="1" stroke="none"/>
<path d="M903.883 345.131C895.192 345.702 887.71 354.015 887.71 363.083C887.71 371.051 890.128 376.81 896.443 380.52C907.325 386.839 919.715 384.112 924.686 373.396C932.344 357.322 918.745 344.156 903.883 345.131Z" fill="url(#RadialGradient_3)" fill-rule="nonzero" opacity="1" stroke="none"/>
</g>
<path d="M355.032 424.064C355.032 147.921 578.889-75.9365 855.032-75.9365C1131.17-75.9365 1355.03 147.921 1355.03 424.064C1355.03 700.206 1131.17 924.064 855.032 924.064C578.889 924.064 355.032 700.206 355.032 424.064Z" fill="none" filter="url(#Filter_3)" stroke="#303030" stroke-linecap="butt" stroke-linejoin="miter" stroke-opacity="0.2" stroke-width="8"/>
<path d="M405.032 424.064C405.032 175.535 606.503-25.9365 855.032-25.9365C1103.56-25.9365 1305.03 175.535 1305.03 424.064C1305.03 672.592 1103.56 874.064 855.032 874.064C606.503 874.064 405.032 672.592 405.032 424.064Z" fill="none" filter="url(#Filter_4)" stroke="#303030" stroke-linecap="butt" stroke-linejoin="miter" stroke-opacity="0.4" stroke-width="8"/>
<path d="M455.032 424.064C455.032 203.15 634.118 24.0635 855.032 24.0635C1075.95 24.0635 1255.03 203.15 1255.03 424.064C1255.03 644.977 1075.95 824.064 855.032 824.064C634.118 824.064 455.032 644.977 455.032 424.064Z" fill="none" filter="url(#Filter_5)" stroke="#303030" stroke-linecap="butt" stroke-linejoin="miter" stroke-opacity="0.6" stroke-width="8"/>
</g>
</svg>
