<?xml version="1.0" encoding="UTF-8" standalone="no"?>
<!DOCTYPE svg PUBLIC "-//W3C//DTD SVG 1.1//EN" "http://www.w3.org/Graphics/SVG/1.1/DTD/svg11.dtd">
<!-- Created with Vectornator (http://vectornator.io/) -->
<svg height="576.0pt" stroke-miterlimit="10" style="fill-rule:nonzero;clip-rule:evenodd;stroke-linecap:round;stroke-linejoin:round;" version="1.1" viewBox="0 0 1024 576" width="1024.0pt" xml:space="preserve" xmlns="http://www.w3.org/2000/svg" xmlns:xlink="http://www.w3.org/1999/xlink">
<defs>
<linearGradient gradientTransform="matrix(0.777332 0 0 0.639217 92.7072 109.282)" gradientUnits="userSpaceOnUse" id="LinearGradient" x1="-120.153" x2="1180.01" y1="-171.08" y2="715.869">
<stop offset="0" stop-color="#ececec"/>
<stop offset="1" stop-color="#a3a3a3" stop-opacity="0.90819"/>
</linearGradient>
<filter color-interpolation-filters="sRGB" filterUnits="userSpaceOnUse" height="773.121" id="Filter" width="771.965" x="469.049" y="56.5924">
<feDropShadow dx="1.16889e-15" dy="19.0894" flood-color="#000000" flood-opacity="0.5" in="SourceGraphic" result="Shadow" stdDeviation="17.1805"/>
</filter>
<radialGradient cx="75.4619" cy="76.1055" gradientTransform="matrix(1.90894 0 0 1.90894 366.92 -64.6253)" gradientUnits="userSpaceOnUse" id="RadialGradient" r="509.316">
<stop offset="0" stop-color="#000000"/>
<stop offset="1" stop-color="#2f3741" stop-opacity="0.90819"/>
</radialGradient>
<radialGradient cx="255.584" cy="255.368" gradientTransform="matrix(1.90894 0 0 1.90894 366.92 -64.6253)" gradientUnits="userSpaceOnUse" id="RadialGradient_2" r="159.401">
<stop offset="0" stop-color="#000000"/>
<stop offset="1" stop-color="#2f3741" stop-opacity="0.90819"/>
</radialGradient>
<radialGradient cx="283.483" cy="224.052" gradientTransform="matrix(1.90894 0 0 1.90894 366.92 -64.6253)" gradientUnits="userSpaceOnUse" id="RadialGradient_3" r="10.6673">
<stop offset="0" stop-color="#000000"/>
<stop offset="1" stop-color="#2f3741" stop-opacity="0.90819"/>
</radialGradient>
<radialGradient cx="653.954" cy="919.37" gradientTransform="matrix(1 0 0 1 167.561 -304.37)" gradientUnits="userSpaceOnUse" id="RadialGradient_4" r="601.5">
<stop offset="0" stop-color="#000000"/>
<stop offset="1" stop-color="#2f3741" stop-opacity="0.90819"/>
</radialGradient>
<filter color-interpolation-filters="sRGB" filterUnits="userSpaceOnUse" height="128.945" id="Filter_2" width="327.695" x="201.555" y="191.695">
<feDropShadow dx="6.12323e-16" dy="10" flood-color="#000000" flood-opacity="0.5" in="SourceGraphic" result="Shadow" stdDeviation="10"/>
</filter>
</defs>
<clipPath id="ArtboardFrame">
<rect height="576" width="1024" x="0" y="0"/>
</clipPath>
<g clip-path="url(#ArtboardFrame)" id="图层-1">
<path d="M0 1.60397C0 0.718121 0.873284-2.24216e-14 1.95053-2.24216e-14L1022.05-2.24216e-14C1023.13-2.24216e-14 1024 0.718121 1024 1.60397L1024 574.396C1024 575.282 1023.13 576 1022.05 576L1.95053 576C0.873284 576 0 575.282 0 574.396L0 1.60397Z" fill="url(#LinearGradient)" fill-rule="nonzero" opacity="1" stroke="none"/>
<g filter="url(#Filter)">
<path d="M813.816 81.988C771.764 87.4832 738.444 97.9243 700.96 117.295C664.416 136.117 637.411 156.037 608.928 185.162C550.485 244.649 519.45 314.851 512.732 402.226C510.314 433.137 513.941 470.643 522.809 506.225C528.72 530.129 535.035 547.302 547.126 572.58C573.325 627.396 612.959 673.556 664.013 709.138C706.468 738.813 749.999 756.398 801.053 764.503C823.758 768.075 875.349 768.762 898.458 765.877C967.65 757.085 1024.62 730.982 1080.37 682.761C1148.22 623.961 1190 539.746 1196.18 449.348C1198.03 419.785 1199.27 423.658 1196.18 395.907C1193.23 369.117 1191.75 360.599 1186.51 339.168C1180.33 314.164 1174.69 298.365 1162.33 272.812C1136.4 218.271 1097.17 172.935 1046.78 138.727C1004.46 110.151 963.082 93.3907 911.222 84.0487C890.531 80.3394 835.716 79.2403 813.816 81.988ZM905.848 94.3524C995.595 109.19 1075.13 158.235 1125.11 229.537C1157.76 276.109 1178.18 330.787 1184.76 389.037C1187.05 409.92 1185.7 456.63 1182.08 478.473C1179.92 491.39 1177.14 503.963 1173.73 516.187C1155.25 582.494 1118.37 638.514 1063.58 683.173C1015.21 722.602 965.366 744.308 901.817 753.513C883.142 756.26 822.549 755.848 802.53 752.826C755.776 745.682 713.186 729.059 673.686 702.544C644.129 682.623 624.916 665.588 604.495 641.409C560.83 589.753 536.109 534.525 526.167 466.796C523.346 447.7 523.749 393.983 526.839 373.376C535.706 314.301 556.665 265.393 593.344 218.134C630.694 169.913 690.884 127.599 749.864 108.091C768.271 102.046 794.469 95.8636 810.457 93.9402C817.175 93.1159 824.027 92.1542 825.908 91.8795C834.238 90.3683 893.084 92.2916 905.848 94.3524Z" fill="url(#RadialGradient)" fill-rule="nonzero" opacity="1" stroke="none"/>
<path d="M837.328 115.921C795.678 118.12 757.119 128.835 718.426 148.893C625.319 196.977 565.264 282.291 551.829 385.465C549.813 401.539 550.216 444.265 552.5 462.949C565.533 564.887 629.35 653.636 723.128 700.346C765.852 721.777 803.068 730.158 854.794 730.295C883.411 730.432 897.921 728.921 922.642 723.563C966.306 714.084 1011.72 691.416 1048.53 661.054C1054.31 656.383 1065.73 645.53 1073.79 637.287C1130.08 579.724 1159.1 506.637 1159.1 423.246C1159.1 367.194 1145.67 315.95 1118.39 268.278C1101.46 238.604 1074.59 206.731 1048.93 185.849C1010.78 154.663 963.753 131.858 917.939 122.104C889.457 116.196 867.154 114.41 837.328 115.921ZM958.917 154.938C975.98 168.127 1012.52 191.344 1016.42 191.344C1018.97 191.344 1018.3 185.162 1015.34 181.315C1009.57 173.897 1014.81 174.309 1022.2 181.865C1029.45 189.284 1032.54 196.84 1033.48 209.341C1033.89 214.974 1035.23 230.223 1036.44 243.275C1037.65 256.326 1038.18 267.454 1037.65 267.866C1037.11 268.416 1034.83 266.355 1032.54 263.333C1026.09 255.09 1010.37 239.978 999.222 231.185C971.008 209.204 937.555 193.68 901.683 185.849C880.992 181.315 851.032 180.628 830.476 184.2C801.859 189.284 772.301 201.373 746.774 218.546C730.114 229.811 706.871 252.892 722.188 243C744.625 228.575 780.9 215.386 811.801 210.44C827.117 207.968 858.824 208.38 874.946 211.265C936.614 221.981 990.355 262.646 1018.57 320.346C1025.15 333.672 1033.48 359.363 1036.17 374.75C1043.02 413.766 1038.45 459.102 1024.08 495.646C991.43 578.625 917.939 638.936 841.358 645.393C822.28 647.041 790.976 641.409 776.063 633.715C768.808 629.869 769.48 632.067 777.272 637.425C799.44 652.811 828.729 662.153 864.601 665.588C896.712 668.473 909.744 664.077 938.092 640.722C975.576 609.948 999.222 577.389 1022.2 525.183L1027.44 513.506L1027.44 523.809C1027.57 537.548 1030.66 546.478 1037.24 551.835C1041.95 555.682 1043.56 556.094 1053.64 556.644C1063.31 557.056 1065.86 556.644 1072.04 553.621C1076.07 551.835 1081.58 548.264 1084.27 545.791C1086.95 543.455 1089.24 541.807 1089.24 542.219C1089.24 546.065 1068.28 582.609 1057.93 596.897C1025.82 641.409 977.592 678.639 930.434 695.4C866.482 718.068 786.542 711.474 728.502 678.914C718.426 673.144 710.499 667.786 693.436 655.01C686.853 650.201 693.033 665.725 701.9 676.166C707.409 682.898 706.334 683.31 697.87 677.54C679.329 665.039 663.073 634.54 655.818 598.683C652.459 582.06 652.459 547.439 655.683 530.266C668.581 463.636 720.441 405.111 785.871 383.817C801.59 378.734 804.201 379.721 803.261 379.721C800.036 379.721 786.274 394.395 778.884 402.089C764.106 417.476 756.448 435.335 755.104 457.179C754.164 473.253 756.985 486.304 764.374 501.691C772.032 517.765 789.364 535.762 805.217 544.005C822.683 553.347 834.103 556.094 855.465 556.094C876.962 556.094 885.426 554.171 903.16 545.241C924.657 534.388 939.839 519.138 949.646 498.394C955.155 486.991 958.917 470.643 958.917 459.515C958.782 438.632 949.915 415.003 937.286 400.99L929.897 392.884L925.329 397.28C915.924 406.073 898.996 407.859 887.307 401.264C875.887 394.807 867.691 377.909 869.572 364.721C870.831 355.601 876.605 345.502 887.71 340.251C903.872 332.608 926.89 334.048 926.89 334.048L918.639 323.563C895.262 306.116 857.481 303.173 824.43 308.806C778.078 316.637 721.247 347.685 680.941 387.114C637.008 430.115 610.406 500.729 616.184 559.529C616.855 566.673 617.258 572.718 616.99 572.992C616.721 573.267 615.512 568.871 614.303 563.376C605.301 522.985 612.153 478.199 634.455 430.802C651.25 394.945 671.134 366.095 697.601 339.03C722.591 313.34 743.012 298.777 786.274 275.422C818.115 258.249 831.685 248.633 842.164 236.131L845.389 232.147L829.267 233.109C812.741 233.933 797.022 236.955 781.571 242.038C768.674 246.435 739.653 261.272 725.815 270.614C667.775 309.768 621.692 372.552 602.076 439.045C598.18 452.233 593.478 478.885 593.478 487.815C593.478 496.608 592.403 494.547 589.716 480.397C587.969 470.917 587.432 460.614 587.566 434.511C587.566 404.836 587.835 399.204 590.522 386.427C607.719 305.234 661.595 236.68 737.907 198.9C779.287 178.43 816.234 169.363 858.824 169.363C880.724 169.363 894.831 170.737 914.446 174.858C935.539 179.392 946.153 178.156 951.393 170.462C954.349 166.203 954.08 158.647 950.856 153.152C946.288 145.596 946.959 145.733 958.917 154.938Z" fill="url(#RadialGradient_2)" fill-rule="nonzero" opacity="1" stroke="none"/>
<path d="M903.883 345.131C895.192 345.702 887.71 354.015 887.71 363.083C887.71 371.051 890.128 376.81 896.443 380.52C907.325 386.839 919.715 384.112 924.686 373.396C932.344 357.322 918.745 344.156 903.883 345.131Z" fill="url(#RadialGradient_3)" fill-rule="nonzero" opacity="1" stroke="none"/>
</g>
<g fill="url(#RadialGradient_4)" filter="url(#Filter_2)" stroke="none">
<path d="M244.25 270.133C242.687 270.133 241.164 270.055 239.68 269.898C238.195 269.742 236.711 269.482 235.227 269.117C232.206 268.414 229.393 267.385 226.789 266.031L226.789 254.117C229.888 256.305 232.87 257.932 235.734 259C238.651 260.068 241.464 260.602 244.172 260.602C247.036 260.602 249.263 259.951 250.852 258.648C252.414 257.372 253.195 255.576 253.195 253.258C253.195 251.461 252.674 249.924 251.633 248.648C251.086 247.971 250.428 247.379 249.66 246.871C248.892 246.363 248.039 245.927 247.102 245.562L241.438 243.414C238.443 242.268 235.982 241.116 234.055 239.957C232.128 238.798 230.656 237.62 229.641 236.422C227.583 234.052 226.555 230.784 226.555 226.617C226.555 221.305 228.247 217.151 231.633 214.156C235.044 211.135 239.68 209.625 245.539 209.625C248.43 209.625 251.132 209.911 253.645 210.484C256.158 211.057 258.807 211.982 261.594 213.258L261.594 224.508C256.594 220.94 251.542 219.156 246.438 219.156C243.625 219.156 241.503 219.716 240.07 220.836C238.586 221.956 237.844 223.544 237.844 225.602C237.844 227.242 238.391 228.583 239.484 229.625C240.005 230.146 240.78 230.68 241.809 231.227C242.837 231.773 244.315 232.411 246.242 233.141L251.203 235.016C255.917 236.76 259.367 239.026 261.555 241.812C263.768 244.651 264.875 248.31 264.875 252.789C264.875 258.544 263.13 262.867 259.641 265.758C256.151 268.674 251.021 270.133 244.25 270.133Z"/>
<path d="M275.539 225.25L285.812 225.25L286.945 231.812C289.367 226.734 293.247 224.195 298.586 224.195C303.508 224.195 307.362 226.233 310.148 230.309C312.935 234.384 314.328 240.016 314.328 247.203C314.328 254.391 312.935 260.009 310.148 264.059C307.362 268.108 303.534 270.133 298.664 270.133C293.534 270.133 289.628 267.698 286.945 262.828L286.945 285.641L275.539 285.641L275.539 225.25ZM294.953 260.602C297.349 260.602 299.27 259.358 300.715 256.871C302.16 254.384 302.883 251.044 302.883 246.852C302.883 242.763 302.186 239.527 300.793 237.145C299.4 234.762 297.492 233.57 295.07 233.57C292.596 233.57 290.624 234.801 289.152 237.262C287.681 239.723 286.945 242.997 286.945 247.086C286.945 251.174 287.674 254.449 289.133 256.91C290.591 259.371 292.531 260.602 294.953 260.602Z"/>
<path d="M335.461 220.055C334.68 220.055 334.289 219.664 334.289 218.883L334.289 207.867C334.289 207.086 334.68 206.695 335.461 206.695L344.562 206.695C345.344 206.695 345.734 207.086 345.734 207.867L345.734 218.883C345.734 219.664 345.344 220.055 344.562 220.055L335.461 220.055ZM349.562 269.469C344.146 269.469 340.246 268.043 337.863 265.191C335.48 262.34 334.289 257.685 334.289 251.227L334.289 234.039L325.031 234.039L325.031 225.25L345.734 225.25L345.734 251.227C345.734 254.612 346.275 257.034 347.355 258.492C348.436 259.951 350.24 260.68 352.766 260.68L361.906 260.68L361.906 269.469L349.562 269.469Z"/>
<path d="M375.422 225.25L385.734 225.25L386.867 232.047C387.987 229.573 389.699 227.646 392.004 226.266C394.309 224.885 397.01 224.195 400.109 224.195C403.313 224.195 406.281 224.937 409.016 226.422L409.016 237.32C406.49 235.029 403.182 233.883 399.094 233.883C395.786 233.883 393.104 234.638 391.047 236.148C388.99 237.659 387.714 239.833 387.219 242.672C387.089 243.349 386.997 244.169 386.945 245.133C386.893 246.096 386.867 247.333 386.867 248.844L386.867 269L375.422 269L375.422 225.25Z"/>
<path d="M431.789 220.055C431.008 220.055 430.617 219.664 430.617 218.883L430.617 207.867C430.617 207.086 431.008 206.695 431.789 206.695L440.891 206.695C441.672 206.695 442.062 207.086 442.062 207.867L442.062 218.883C442.062 219.664 441.672 220.055 440.891 220.055L431.789 220.055ZM445.891 269.469C440.474 269.469 436.574 268.043 434.191 265.191C431.809 262.34 430.617 257.685 430.617 251.227L430.617 234.039L421.359 234.039L421.359 225.25L442.062 225.25L442.062 251.227C442.062 254.612 442.603 257.034 443.684 258.492C444.764 259.951 446.568 260.68 449.094 260.68L458.234 260.68L458.234 269.469L445.891 269.469Z"/>
<path d="M494.641 269.156C490.344 269.156 486.971 268.714 484.523 267.828C482.076 266.943 480.35 265.419 479.348 263.258C478.345 261.096 477.844 258.128 477.844 254.352L477.844 234.039L466.672 234.039L466.672 225.25L477.844 225.25L477.844 213.297L489.289 208.219L489.289 225.25L504.25 225.25L504.25 234.039L489.289 234.039L489.289 254.898C489.289 256.826 489.777 258.219 490.754 259.078C491.73 259.938 493.299 260.367 495.461 260.367L504.25 260.367L504.25 269.156L494.641 269.156Z"/>
</g>
</g>
</svg>
